<?xml version="1.0" encoding="utf-8"?>
<!-- Generator: Adobe Illustrator 16.2.1, SVG Export Plug-In . SVG Version: 6.00 Build 0)  -->
<!DOCTYPE svg PUBLIC "-//W3C//DTD SVG 1.1//EN" "http://www.w3.org/Graphics/SVG/1.1/DTD/svg11.dtd">
<svg version="1.1" id="Layer_1" xmlns="http://www.w3.org/2000/svg" xmlns:xlink="http://www.w3.org/1999/xlink" x="0px" y="0px"
	 width="49.998px" height="37.5px" viewBox="0 -9.19 49.998 37.5" enable-background="new 0 -9.19 49.998 37.5"
	 xml:space="preserve">
<path id="dribbble-icon" opacity="0.3" fill="#FFFFFF" enable-background="new    " d="M25.2-8.986
	c-10.214,0-18.493,8.279-18.493,18.494c0,10.213,8.279,18.493,18.493,18.493c10.212,0,18.493-8.279,18.493-18.493
	C43.693-0.707,35.412-8.986,25.2-8.986z M40.432,8.647c-3.967-0.651-7.618-0.688-10.945-0.114c-0.377-0.867-0.765-1.731-1.182-2.588
	c3.56-1.542,6.419-3.635,8.551-6.291C38.935,2.11,40.239,5.23,40.432,8.647z M34.511-2.575c-1.854,2.393-4.42,4.287-7.684,5.67
	c-1.567-2.866-3.356-5.665-5.376-8.379C22.653-5.592,23.905-5.77,25.2-5.77C28.705-5.771,31.931-4.571,34.511-2.575z M18.306-4.108
	c2.052,2.687,3.869,5.451,5.452,8.294c-3.745,1.104-8.216,1.67-13.384,1.703C11.44,1.518,14.382-2.113,18.306-4.108z M9.921,9.508
	c0-0.134,0.018-0.262,0.021-0.396c5.93-0.008,11.048-0.69,15.335-2.037c0.359,0.73,0.703,1.467,1.032,2.207
	c-5.21,1.628-9.5,4.966-12.85,9.986C11.253,16.62,9.921,13.218,9.921,9.508z M15.823,21.544c3.036-4.758,6.909-7.855,11.71-9.287
	c1.429,3.728,2.48,7.566,3.146,11.496c-1.704,0.656-3.548,1.035-5.479,1.035C21.664,24.788,18.415,23.567,15.823,21.544z
	 M33.679,22.204c-0.676-3.623-1.664-7.168-2.957-10.627c2.888-0.408,6.07-0.303,9.553,0.303
	C39.6,16.173,37.148,19.882,33.679,22.204z"/>
</svg>
