<?xml version="1.0" encoding="utf-8"?>
<!-- Generator: Adobe Illustrator 16.2.1, SVG Export Plug-In . SVG Version: 6.00 Build 0)  -->
<!DOCTYPE svg PUBLIC "-//W3C//DTD SVG 1.1//EN" "http://www.w3.org/Graphics/SVG/1.1/DTD/svg11.dtd">
<svg version="1.1" id="Layer_1" xmlns="http://www.w3.org/2000/svg" xmlns:xlink="http://www.w3.org/1999/xlink" x="0px" y="0px"
	 width="49.998px" height="37.5px" viewBox="0 0 49.998 37.5" enable-background="new 0 0 49.998 37.5" xml:space="preserve">
<path id="instagram-icon" opacity="0.3" fill="#FFFFFF" d="M32.593,13.504h10.673v16.384c0,3.992-3.235,7.226-7.226,7.226H13.958
	c-3.992,0-7.226-3.233-7.226-7.226V13.504h10.623c-1.087,1.528-1.728,3.396-1.728,5.414c0,5.16,4.186,9.346,9.349,9.346
	c5.161,0,9.347-4.186,9.347-9.346C34.322,16.9,33.682,15.032,32.593,13.504z M43.266,7.614v4.746H31.635
	c-1.695-1.722-4.053-2.79-6.661-2.79c-2.606,0-4.963,1.068-6.659,2.79H6.732V7.614c0-2.436,1.206-4.588,3.052-5.896v7.78h1.48V0.909
	c0.336-0.136,0.685-0.246,1.043-0.33v8.918h1.482V0.393c0.056-0.001,0.111-0.004,0.167-0.004h0.855v9.11h1.482v-9.11H36.04
	C40.03,0.388,43.266,3.624,43.266,7.614z M39.964,4.568c0-0.639-0.52-1.159-1.161-1.159h-3.905c-0.64,0-1.158,0.52-1.158,1.159
	v3.993c0,0.64,0.519,1.159,1.158,1.159h3.905c0.642,0,1.161-0.519,1.161-1.159V4.568L39.964,4.568z M17.773,18.918
	c0-2.158,0.952-4.093,2.459-5.414c0.528-0.463,1.125-0.85,1.771-1.144c0.905-0.413,1.911-0.644,2.969-0.644
	c1.061,0,2.066,0.231,2.972,0.644c0.646,0.294,1.243,0.681,1.771,1.144c1.507,1.321,2.459,3.258,2.459,5.414
	c0,3.971-3.229,7.201-7.202,7.201C21.004,26.119,17.773,22.889,17.773,18.918z M19.676,18.918c0,2.939,2.382,5.322,5.323,5.322
	c2.939,0,5.323-2.383,5.323-5.322c0-2.941-2.384-5.323-5.323-5.323C22.058,13.595,19.676,15.977,19.676,18.918z"/>
</svg>
