<?xml version="1.0" encoding="utf-8"?>
<!-- Generator: Adobe Illustrator 16.2.1, SVG Export Plug-In . SVG Version: 6.00 Build 0)  -->
<!DOCTYPE svg PUBLIC "-//W3C//DTD SVG 1.1//EN" "http://www.w3.org/Graphics/SVG/1.1/DTD/svg11.dtd">
<svg version="1.1" id="Layer_1" xmlns="http://www.w3.org/2000/svg" xmlns:xlink="http://www.w3.org/1999/xlink" x="0px" y="0px"
	 width="38px" height="28px" viewBox="0 0 38 28" enable-background="new 0 0 38 28" xml:space="preserve">
<path fill="#9D9FA2" d="M33.094,7.042c0,0.943-0.765,1.708-1.708,1.708H6.614c-0.943,0-1.708-0.765-1.708-1.708l0,0
	c0-0.943,0.765-1.708,1.708-1.708h24.771C32.329,5.333,33.094,6.098,33.094,7.042L33.094,7.042z"/>
<path fill="#9D9FA2" d="M33.094,14.041c0,0.943-0.765,1.709-1.708,1.709H6.614c-0.943,0-1.708-0.766-1.708-1.709l0,0
	c0-0.943,0.765-1.707,1.708-1.707h24.771C32.329,12.334,33.094,13.098,33.094,14.041L33.094,14.041z"/>
<path fill="#9D9FA2" d="M33.094,21.041c0,0.943-0.765,1.709-1.708,1.709H6.614c-0.943,0-1.708-0.766-1.708-1.709l0,0
	c0-0.943,0.765-1.707,1.708-1.707h24.771C32.329,19.334,33.094,20.098,33.094,21.041L33.094,21.041z"/>
</svg>
