<?xml version="1.0" encoding="utf-8"?>
<!-- Generator: Adobe Illustrator 18.0.0, SVG Export Plug-In . SVG Version: 6.00 Build 0)  -->
<!DOCTYPE svg PUBLIC "-//W3C//DTD SVG 1.1//EN" "http://www.w3.org/Graphics/SVG/1.1/DTD/svg11.dtd">
<svg version="1.1" id="Layer_1" xmlns="http://www.w3.org/2000/svg" xmlns:xlink="http://www.w3.org/1999/xlink" x="0px" y="0px"
	 viewBox="0 0 800 600" enable-background="new 0 0 800 600" xml:space="preserve">
<path opacity="0.3" fill="#FFFFFF" d="M323.7,441.9h187.5c14,0,24.7-10.7,24.7-24.7V165.6c0-14-10.7-24.7-24.7-24.7H323.7
	c-14,0-24.7,10.7-24.7,24.7V418C299.9,431.2,310.5,441.9,323.7,441.9z M380.4,259.3c1.6-4.9,7.4-8.2,13.2-11.5l0,0
	c1.6-0.8,4.9-2.5,7.4-4.1h0.8c2.5-0.8,5.8-1.6,5.8-4.9c0-2.5-0.8-4.1-2.5-5.8c0,0-0.8-0.8-0.8-1.6c-5.8-7.4-7.4-14.8-7.4-23
	c1.6-10.7,8.2-18.1,18.1-18.9c0.8,0,2.5,0,3.3,0c5.8,0,10.7,2.5,14.8,5.8c4.1,4.1,5.8,10.7,5.8,18.9c0,4.1-2.5,9.9-4.1,14
	c-0.8,0.8-1.6,2.5-2.5,3.3c-2.5,2.5-4.1,5.8-3.3,9c0.8,2.5,4.9,4.1,8.2,4.9h0.8c0.8,0,0.8,0,1.6,0.8c4.9,2.5,14.8,6.6,17.3,13.2
	c0.8,1.6,0.8,5.8,0,8.2c-3.3,8.2-21.4,9.9-37,9.9c-6.6,0-14.8,0-22.2-1.6c-4.9-0.8-11.5-2.5-14.8-7.4
	C379.6,265.9,379.6,263.4,380.4,259.3z M345.1,324.3h146.4c4.1,0,7.4,3.3,7.4,7.4c0,4.1-3.3,7.4-7.4,7.4H345.1
	c-4.1,0-7.4-3.3-7.4-7.4C336.9,327.6,341,324.3,345.1,324.3z M345.1,352.2h146.4c4.1,0,7.4,3.3,7.4,7.4s-3.3,7.4-7.4,7.4H345.1
	c-4.1,0-7.4-3.3-7.4-7.4C336.9,356.3,341,352.2,345.1,352.2z M345.1,381h146.4c4.1,0,7.4,3.3,7.4,7.4s-3.3,7.4-7.4,7.4H345.1
	c-4.1,0-7.4-3.3-7.4-7.4C336.9,384.3,341,381,345.1,381z"/>
</svg>
