<?xml version="1.0" encoding="utf-8"?>
<!-- Generator: Adobe Illustrator 16.2.1, SVG Export Plug-In . SVG Version: 6.00 Build 0)  -->
<!DOCTYPE svg PUBLIC "-//W3C//DTD SVG 1.1//EN" "http://www.w3.org/Graphics/SVG/1.1/DTD/svg11.dtd">
<svg version="1.1" id="Layer_1" xmlns="http://www.w3.org/2000/svg" xmlns:xlink="http://www.w3.org/1999/xlink" x="0px" y="0px"
	 width="49.998px" height="37.5px" viewBox="0 0 49.998 37.5" enable-background="new 0 0 49.998 37.5" xml:space="preserve">
<path id="twitter-icon" opacity="0.3" fill="#FFFFFF" enable-background="new    " d="M42.572,7.418
	c-1.31,0.584-2.721,0.981-4.199,1.161c1.508-0.909,2.667-2.346,3.21-4.053c-1.412,0.839-2.976,1.45-4.644,1.782
	c-1.334-1.418-3.237-2.304-5.342-2.301c-4.721,0.008-8.184,4.419-7.11,8.992C18.409,12.707,13.015,9.802,9.4,5.385
	c-1.91,3.289-0.98,7.589,2.28,9.76c-1.197-0.036-2.328-0.365-3.313-0.908c-0.074,3.389,2.36,6.553,5.877,7.255
	c-1.029,0.279-2.156,0.347-3.301,0.129c0.935,2.904,3.64,5.014,6.84,5.069c-3.072,2.413-6.944,3.496-10.824,3.046
	c3.24,2.069,7.087,3.273,11.217,3.267c13.579-0.022,21.232-11.507,20.752-21.792C40.356,10.178,41.594,8.888,42.572,7.418z"/>
</svg>
